<svg width="40" height="40" viewBox="0 0 40 40" fill="none" xmlns="http://www.w3.org/2000/svg">
<path fill-rule="evenodd" clip-rule="evenodd" d="M20 1.5947C9.57906 1.5947 1.12875 10.0431 1.12875 20.4659C1.12875 28.8041 6.53594 35.8775 14.0341 38.3731C14.9769 38.5481 15.3231 37.9638 15.3231 37.4653C15.3231 37.0153 15.3056 35.5288 15.2975 33.9519C10.0475 35.0935 8.93969 31.7253 8.93969 31.7253C8.08125 29.5441 6.84438 28.9641 6.84438 28.9641C5.13188 27.7928 6.97344 27.8172 6.97344 27.8172C8.86813 27.95 9.86625 29.7619 9.86625 29.7619C11.5494 32.6463 14.2809 31.8125 15.3578 31.3306C15.5272 30.111 16.0163 29.2781 16.5559 28.8069C12.3644 28.3303 7.95781 26.7119 7.95781 19.4809C7.95781 17.4206 8.69531 15.7372 9.9025 14.4153C9.70625 13.9403 9.06031 12.0209 10.085 9.42157C10.085 9.42157 11.6694 8.91438 15.2756 11.3559C16.7812 10.9375 18.3959 10.7272 20 10.72C21.6031 10.7272 23.2187 10.9369 24.7272 11.3553C28.3291 8.91376 29.9116 9.42095 29.9116 9.42095C30.9388 12.02 30.2928 13.9397 30.0969 14.4147C31.3069 15.7366 32.0391 17.42 32.0391 19.4803C32.0391 26.7284 27.6244 28.3241 23.4222 28.7916C24.0994 29.3772 24.7025 30.526 24.7025 32.2863C24.7025 34.8113 24.6806 36.8435 24.6806 37.465C24.6806 37.9672 25.0206 38.5556 25.9769 38.3703C33.4706 35.8722 38.8716 28.8009 38.8716 20.4659C38.8712 10.0438 30.4219 1.59501 20 1.59501V1.5947Z" fill="white"/>
<path d="M8.27625 28.6894C8.23469 28.7831 8.08719 28.8113 7.95281 28.7472C7.81531 28.6859 7.73875 28.5581 7.78313 28.4641C7.82375 28.3672 7.97156 28.3406 8.10813 28.4053C8.24563 28.4669 8.32375 28.5959 8.27594 28.6897L8.27625 28.6894ZM9.04063 29.5422C8.95094 29.6256 8.775 29.5869 8.65563 29.4547C8.53188 29.3234 8.50875 29.1475 8.60031 29.0628C8.69344 28.9797 8.86406 29.0191 8.98781 29.1503C9.11094 29.2834 9.13531 29.4578 9.04094 29.5425L9.04063 29.5422ZM9.785 30.6288C9.66938 30.7094 9.48 30.6341 9.36313 30.4663C9.2475 30.2981 9.2475 30.0966 9.36625 30.0163C9.48281 29.9356 9.66938 30.0084 9.78813 30.1747C9.90313 30.345 9.90313 30.5466 9.785 30.6284V30.6288ZM10.8041 31.6791C10.7009 31.7931 10.4803 31.7625 10.3191 31.6072C10.1544 31.455 10.1084 31.2384 10.2119 31.1247C10.3169 31.0103 10.5384 31.0422 10.7006 31.1966C10.8653 31.3484 10.915 31.5653 10.8047 31.6788L10.8041 31.6791ZM12.2103 32.2888C12.1644 32.4366 11.9525 32.5038 11.7384 32.4406C11.525 32.3759 11.3853 32.2031 11.4291 32.0538C11.4728 31.9047 11.6862 31.835 11.9016 31.9022C12.115 31.9666 12.2547 32.1384 12.2103 32.2888ZM13.755 32.4016C13.7603 32.5572 13.5791 32.6859 13.355 32.6891C13.1291 32.6944 12.9463 32.5681 12.9441 32.415C12.9441 32.2578 13.1216 32.1306 13.3472 32.1263C13.5712 32.1222 13.7553 32.2472 13.7553 32.4013L13.755 32.4016ZM15.1919 32.1572C15.2187 32.3088 15.0628 32.4647 14.84 32.5063C14.6212 32.5469 14.4181 32.4525 14.39 32.3022C14.3631 32.1466 14.5219 31.9906 14.7406 31.9503C14.9637 31.9119 15.1637 32.0034 15.1919 32.1575V32.1572Z" fill="white"/>
</svg>
