<svg width="50" height="50" viewBox="0 0 50 50" fill="none" xmlns="http://www.w3.org/2000/svg">
<path d="M37.0833 45.7654C36.6106 46.0334 36.0766 46.1741 35.5333 46.1737C31.1333 46.2904 23.6916 39.232 17.7833 29.007C11.65 18.3904 9.3167 8.05703 12.0667 4.65703C12.3006 4.3583 12.5891 4.10664 12.9167 3.91533C16.9 1.60703 25.5417 9.11533 32.2167 20.6736C38.8917 32.2319 41.0667 43.4654 37.0833 45.7654Z" fill="#AD1457"/>
<path d="M35.5333 46.1738C31.1333 46.2905 23.6916 39.2321 17.7833 29.0071C11.65 18.3905 9.3167 8.05705 12.0667 4.65705C16.4584 4.54875 23.9 11.6071 29.8084 21.8321C35.9333 32.4404 38.2667 42.7655 35.5333 46.1738Z" fill="#E91E63"/>
<path d="M32.2167 29.007C25.5417 40.5654 16.9 48.0737 12.9167 45.7654C12.5891 45.5742 12.3006 45.3226 12.0667 45.0237C9.31672 41.6237 11.65 31.2904 17.7834 20.6737C23.6917 10.4487 31.1334 3.39044 35.5334 3.50704C36.0767 3.50665 36.6108 3.64737 37.0834 3.91534C41.0667 6.21544 38.8917 17.4487 32.2167 29.007Z" fill="#1566C0"/>
<path d="M29.8083 27.8487C23.9 38.0737 16.4583 45.132 12.0666 45.0237C9.31662 41.6237 11.6499 31.2904 17.7833 20.6737C23.6916 10.4487 31.1333 3.39044 35.5333 3.50704C38.2667 6.91544 35.9333 17.2404 29.8083 27.8487Z" fill="#2296F3"/>
<path d="M49.1667 24.8404C49.1667 29.4404 38.35 33.1737 25 33.1737C24.5833 33.1737 24.1667 33.1737 23.7583 33.1654H23.7416C10.975 32.9404 0.833309 29.2987 0.833309 24.8404C0.833309 20.3821 10.975 16.7404 23.7416 16.5154H23.7583C24.1666 16.5071 24.5833 16.5071 25 16.5071C38.35 16.507 49.1667 20.2404 49.1667 24.8404Z" fill="#FFB301"/>
<path d="M46.6667 24.8404C46.6667 29.2988 36.525 32.9405 23.7584 33.1655H23.7417C10.975 32.9405 0.833309 29.2988 0.833309 24.8404C0.833309 20.3821 10.975 16.7404 23.7416 16.5154H23.7583C36.525 16.7404 46.6667 20.382 46.6667 24.8404Z" fill="#FEC108"/>
<path d="M10.8333 14.007C12.6742 14.007 14.1666 12.5147 14.1666 10.6737C14.1666 8.83279 12.6742 7.34042 10.8333 7.34042C8.99238 7.34042 7.50002 8.83279 7.50002 10.6737C7.50002 12.5147 8.99238 14.007 10.8333 14.007Z" fill="#FFEB3A"/>
<path d="M44.1667 23.1737C46.0076 23.1737 47.5 21.6814 47.5 19.8404C47.5 17.9995 46.0076 16.5071 44.1667 16.5071C42.3258 16.5071 40.8334 17.9995 40.8334 19.8404C40.8334 21.6814 42.3258 23.1737 44.1667 23.1737Z" fill="#02A9F4"/>
<path d="M30 47.3403C31.8409 47.3403 33.3333 45.848 33.3333 44.007C33.3333 42.1661 31.8409 40.6737 30 40.6737C28.1591 40.6737 26.6667 42.1661 26.6667 44.007C26.6667 45.848 28.1591 47.3403 30 47.3403Z" fill="#FFEB3A"/>
<path d="M25 29.0071C27.3012 29.0071 29.1667 27.1416 29.1667 24.8404C29.1667 22.5392 27.3012 20.6737 25 20.6737C22.6988 20.6737 20.8333 22.5392 20.8333 24.8404C20.8333 27.1416 22.6988 29.0071 25 29.0071Z" fill="#E91E63"/>
<path d="M47.39 20.6471C47.4595 20.3837 47.4964 20.1128 47.5 19.8404C47.5 19.3802 47.127 19.0071 46.6667 19.0071C46.2064 19.0071 45.8334 19.3803 45.8334 19.8404C45.8345 20.2829 45.6586 20.7074 45.345 21.0196C44.6851 21.6487 43.6475 21.6487 42.9875 21.0196C42.5103 20.543 42.3675 19.8256 42.6256 19.2024C42.8838 18.5793 43.4921 18.1732 44.1666 18.1737C44.6269 18.1737 44.9999 17.8007 44.9999 17.3404C44.9999 16.8802 44.6269 16.5071 44.1666 16.5071C43.2823 16.505 42.4339 16.8564 41.81 17.483C41.6921 17.6064 41.5838 17.7384 41.4858 17.878C40.5559 17.5856 39.5458 17.3164 38.4634 17.0722C38.8676 15.7826 39.2014 14.4721 39.4634 13.1463C40.4575 8.03047 39.7592 4.49376 37.5 3.18965C35.2408 1.88545 31.8333 3.04883 27.895 6.46631C26.8774 7.35772 25.9088 8.30352 24.9934 9.29962C19.8842 3.76954 15.3566 1.53956 12.5 3.19376C11.5991 3.7129 10.5175 4.87628 10.1967 7.40294C8.63096 7.70762 7.50059 9.07872 7.5 10.6737C7.5 11.134 7.87314 11.507 8.3333 11.507C8.79346 11.507 9.1666 11.1339 9.1666 10.6737C9.16553 10.2313 9.34141 9.80674 9.65498 9.49454C10.3149 8.86544 11.3525 8.86544 12.0125 9.49454C12.4897 9.9712 12.6325 10.6886 12.3744 11.3117C12.1162 11.9349 11.5079 12.3409 10.8334 12.3404C10.3731 12.3404 10.0001 12.7136 10.0001 13.1737C10.0033 13.5823 10.3061 13.9266 10.7109 13.982C10.9284 14.9579 11.206 15.9912 11.5442 17.0737C4.19668 18.7313 0 21.5379 0 24.8404C0 28.143 4.19668 30.9487 11.5375 32.6063C11.1338 33.8968 10.8 35.2081 10.5375 36.5346C9.54248 41.6504 10.2408 45.1871 12.5 46.4912C13.1241 46.8437 13.8309 47.0234 14.5475 47.012C16.6208 47.012 19.2225 45.7179 22.105 43.2146C23.1201 42.3242 24.0865 41.3798 25 40.3854C25.68 41.1226 26.3664 41.8149 27.0592 42.462C26.8042 42.9372 26.6694 43.4677 26.6667 44.007C26.6667 44.4673 27.0397 44.8403 27.5 44.8403C27.9603 44.8403 28.3333 44.4673 28.3333 44.007C28.3322 43.5646 28.5081 43.14 28.8217 42.8278C29.4816 42.1987 30.5192 42.1987 31.1792 42.8278C31.6564 43.3045 31.7992 44.0219 31.5411 44.645C31.2829 45.2682 30.6746 45.6742 30.0001 45.6737C29.5398 45.6737 29.1668 46.0469 29.1668 46.507C29.1668 46.9672 29.5398 47.3403 30.0001 47.3403C30.8844 47.3425 31.7328 46.9911 32.3567 46.3645C32.3851 46.3353 32.4051 46.3011 32.4326 46.2711C33.3685 46.7291 34.3912 46.9822 35.4326 47.0136C36.1564 47.0266 36.8704 46.8449 37.5001 46.4877C40.3601 44.8402 40.6942 39.8011 38.4601 32.6068C45.8025 30.9496 50 28.1429 50 24.8404C50 23.3254 49.1167 21.9188 47.39 20.6471ZM25.0092 37.8746C23.965 36.6621 22.9351 35.3471 21.9316 33.9321C22.9691 33.9763 23.9983 34.0071 25 34.0071C26.0017 34.0071 27.0283 33.9763 28.0658 33.9321C27.0658 35.3404 26.0434 36.6654 25.0092 37.8746ZM24.9908 11.8063C26.0353 13.0185 27.0611 14.3326 28.0684 15.7487C26.0125 15.6604 23.9925 15.6604 21.9342 15.7487C22.9342 14.3404 23.9566 13.0154 24.9908 11.8063ZM20.75 32.2046C20 31.0821 19.25 29.8713 18.505 28.5904C17.7883 27.3487 17.1175 26.0904 16.495 24.8404C17.1167 23.5904 17.7834 22.3404 18.505 21.0904C19.2267 19.8404 19.9783 18.6371 20.7475 17.4763C23.5781 17.3034 26.4168 17.3034 29.2475 17.4763C29.9975 18.5987 30.7475 19.8055 31.4925 21.0904C32.2092 22.3321 32.88 23.5904 33.5024 24.8404C32.8808 26.0904 32.2141 27.3404 31.4925 28.5904C30.7708 29.8404 30.0191 31.0438 29.25 32.2046C26.4193 32.3774 23.5807 32.3774 20.75 32.2046ZM17.0616 20.257C16.5433 21.1545 16.0616 22.0545 15.5892 22.9537C14.8792 21.4028 14.2559 19.857 13.7175 18.3296C15.2858 18.0371 16.9358 17.8046 18.6575 17.6396C18.1142 18.4929 17.5783 19.3612 17.0616 20.257ZM15.5925 26.7337C16.0616 27.6328 16.5475 28.5328 17.0616 29.4237C17.5892 30.3404 18.1232 31.2029 18.6566 32.0412C16.9316 31.8745 15.2783 31.6421 13.7075 31.3487C14.2375 29.8496 14.8741 28.3021 15.5925 26.7337ZM32.9384 29.4237C33.4567 28.5263 33.9384 27.6263 34.4108 26.7271C35.12 28.2779 35.7441 29.8237 36.2825 31.3512C34.7142 31.6437 33.0642 31.8762 31.3425 32.0412C31.8858 31.1879 32.4217 30.3195 32.9384 29.4237ZM34.4075 22.9471C33.9384 22.048 33.4525 21.148 32.9384 20.257C32.4108 19.3403 31.8768 18.4778 31.3434 17.6396C33.0656 17.8063 34.7153 18.037 36.2925 18.332C35.7625 19.8313 35.1259 21.3787 34.4075 22.9471ZM28.9908 7.72462C31.545 5.50713 33.7983 4.32628 35.4167 4.32628C35.8531 4.31602 36.2846 4.42178 36.6667 4.63292C38.2392 5.54122 38.6667 8.52872 37.8334 12.8287C37.57 14.1485 37.2337 15.4527 36.8259 16.7354C34.6296 16.321 32.4116 16.0314 30.1825 15.8679C28.9322 14.0165 27.5731 12.2408 26.1125 10.5504C27.018 9.55616 27.9777 8.6128 28.9875 7.72452H28.9908V7.72462ZM13.1941 8.3171C12.8197 7.94766 12.3626 7.67286 11.8608 7.51544C11.8977 6.38409 12.4376 5.32833 13.3333 4.63624C15.3833 3.4504 19.4824 5.76544 23.8783 10.5529C22.4252 12.2476 21.0696 14.0234 19.8184 15.8721C17.5909 16.035 15.3746 16.3243 13.18 16.7388C12.8383 15.648 12.5575 14.6096 12.3392 13.6346C13.2914 13.1553 13.9554 12.2478 14.1239 11.1951C14.2925 10.1425 13.945 9.07305 13.19 8.32042L13.1941 8.3171ZM1.6667 24.8404C1.6667 22.4696 5.72754 20.0763 12.0676 18.6629C12.8051 20.7697 13.6635 22.8323 14.6384 24.8404C13.6634 26.848 12.8034 28.9094 12.0625 31.0146C5.72588 29.6037 1.6667 27.2112 1.6667 24.8404ZM21.0125 41.9563C17.705 44.8296 14.905 45.9563 13.3333 45.048C11.7616 44.1397 11.3333 41.1522 12.1708 36.8522C12.4342 35.5323 12.7705 34.2281 13.1783 32.9455C15.3746 33.3599 17.5926 33.6495 19.8217 33.813C21.072 35.6645 22.431 37.44 23.8917 39.1305C22.9849 40.1248 22.0236 41.0682 21.0125 41.9563ZM36.6667 45.0454C35.6809 45.6204 34.3492 45.2912 33.2309 44.7954C33.5601 43.4694 33.0442 42.0771 31.9305 41.2857C30.8167 40.4942 29.3322 40.465 28.1883 41.212C27.4982 40.5665 26.8119 39.8703 26.1291 39.1236C27.5802 37.4304 28.934 35.6561 30.1841 33.8095C32.4117 33.6465 34.6284 33.3571 36.8232 32.9428C38.7642 39.1462 38.7208 43.8604 36.6667 45.0454ZM37.9358 31.0179C37.1973 28.9109 36.3378 26.8483 35.3617 24.8403C36.3369 22.8326 37.197 20.7709 37.9376 18.6653C38.9909 18.8986 39.9734 19.1554 40.8734 19.4337C40.6948 20.844 41.4326 22.2117 42.7094 22.8369C43.986 23.4621 45.519 23.2063 46.5234 22.2004C46.5459 22.1771 46.5618 22.1495 46.5834 22.1263C47.5412 22.7259 48.1825 23.7206 48.3334 24.8404C48.3334 27.2112 44.2726 29.6046 37.9325 31.018H37.9358V31.0179Z" fill="black"/>
<path d="M22.5 24.8405C22.4981 24.1773 22.7616 23.5408 23.2316 23.073C24.2211 22.1287 25.778 22.1287 26.7675 23.073C27.2366 23.5418 27.5003 24.178 27.5003 24.8413C27.5003 25.5047 27.2367 26.1408 26.7675 26.6097C26.4421 26.9353 26.4423 27.463 26.7679 27.7884C27.0935 28.1138 27.6212 28.1136 27.9466 27.788C29.5734 26.1607 29.5732 23.5227 27.9461 21.8957C26.3189 20.2688 23.681 20.2687 22.0538 21.8957C20.4267 23.5228 20.4265 26.1608 22.0533 27.788C22.3787 28.1136 22.9064 28.1138 23.232 27.7884C23.5576 27.463 23.5578 26.9353 23.2324 26.6097C22.7618 26.1414 22.498 25.5043 22.5 24.8405Z" fill="black"/>
</svg>
